<svg xmlns="http://www.w3.org/2000/svg" viewBox="0 0 300 300">
  <defs>
    <linearGradient id="silver-gradient" x1="0%" y1="0%" x2="100%" y2="100%">
      <stop offset="0%" style="stop-color:#c0c0c0" />
      <stop offset="50%" style="stop-color:#f5f5f5" />
      <stop offset="100%" style="stop-color:#a9a9a9" />
    </linearGradient>
  </defs>
  <path d="M150 25 L275 100 L275 200 L150 275 L25 200 L25 100 Z" fill="none" stroke="url(#silver-gradient)" stroke-width="3" />
  <path d="M150 75 L87.5 112.5 L87.5 187.5 L150 225 L212.5 187.5 L212.5 112.5 Z" fill="none" stroke="url(#silver-gradient)" stroke-width="2" />
  <path d="M150 75 L150 125 L87.5 162.5 L87.5 112.5 Z" fill="url(#silver-gradient)" stroke="url(#silver-gradient)" stroke-width="1" />
  <path d="M150 75 L150 125 L212.5 162.5 L212.5 112.5 Z" fill="url(#silver-gradient)" stroke="url(#silver-gradient)" stroke-width="1" opacity="0.8" />
  <path d="M87.5 162.5 L150 125 L150 175 L87.5 212.5 Z" fill="url(#silver-gradient)" stroke="url(#silver-gradient)" stroke-width="1" opacity="0.9" />
  <path d="M212.5 162.5 L150 125 L150 175 L212.5 212.5 Z" fill="url(#silver-gradient)" stroke="url(#silver-gradient)" stroke-width="1" opacity="0.7" />
  <path d="M150 175 L87.5 212.5 L150 250 L212.5 212.5 Z" fill="url(#silver-gradient)" stroke="url(#silver-gradient)" stroke-width="1" opacity="0.85" />
  <line x1="150" y1="25" x2="150" y2="75" stroke="url(#silver-gradient)" stroke-width="2" />
  <line x1="275" y1="200" x2="212.5" y2="212.5" stroke="url(#silver-gradient)" stroke-width="2" />
  <line x1="25" y1="200" x2="87.5" y2="212.5" stroke="url(#silver-gradient)" stroke-width="2" />
</svg>